<svg id="Layer_1" data-name="Layer 1" xmlns="http://www.w3.org/2000/svg" xmlns:xlink="http://www.w3.org/1999/xlink" viewBox="0 0 97 82.31"><defs><style>.cls-1{fill:url(#Sky);}.cls-2{fill:url(#Sky-2);}.cls-3{fill:url(#Sky-3);}</style><linearGradient id="Sky" x1="1.51" y1="50.84" x2="98.51" y2="50.84" gradientUnits="userSpaceOnUse"><stop offset="0" stop-color="#cce0f4"/><stop offset="0.06" stop-color="#c3dcf2"/><stop offset="0.17" stop-color="#a9d2ee"/><stop offset="0.31" stop-color="#80c2e7"/><stop offset="0.46" stop-color="#47acde"/><stop offset="0.57" stop-color="#1e9cd7"/><stop offset="0.87" stop-color="#0075be"/><stop offset="0.99" stop-color="#005b97"/></linearGradient><linearGradient id="Sky-2" x1="34.23" y1="34.63" x2="37.38" y2="34.63" gradientTransform="matrix(2.54, 0.18, -0.46, 0.98, -41.44, -5.42)" xlink:href="#Sky"/><linearGradient id="Sky-3" x1="33.66" y1="30.37" x2="59.44" y2="30.37" gradientTransform="translate(-0.85 0.41)" xlink:href="#Sky"/></defs><title>LS</title><path class="cls-1" d="M1.51,13.2V92H69.69s13.64,0,21.22-7.57,7.57-15.16,7.57-15.16S100,49.57,80.3,45C72,43.11,70.7,41.2,72,39.62c1.73-2.16,8.34-3.69,8.34-3.69H95.45a24.84,24.84,0,0,0-7.57-19.7c-13.64-9.09-28.79-6.06-28.79-6.06S51,10.81,45.21,15,35.7,27,36.36,32.25c.11.89.21,2.34.47,4.06.32,2.1-4.65,4.62-3.5,7,.16.35,5.87.7,6.06,1a15.06,15.06,0,0,0,1,1.5,28.83,28.83,0,0,0,6.92,6.72c5.31,3,10.83,1.62,11.83,1.51,30.5-3.18,28.33,26.67,1.51,24.25-1.56-.14-6.32-.2-12.12-.2-3,0-6.27-10.43-9.53-10.41-1.84,0-8.34-2.45-10.12,0-2.08,2.81.59,10.54-1.23,10.56l-9.42.1V11.69H1.51Z" transform="translate(-1.51 -9.69)"/><rect class="cls-2" x="33" y="27.66" width="1.46" height="14.69" transform="translate(-7.17 -3.17) rotate(-10.19)"/><rect class="cls-3" x="32.81" y="30.16" width="25.78" height="1.23" transform="translate(-6.11 -1.4) rotate(-9.87)"/></svg>